<svg width="48" height="51" viewBox="0 0 48 51" fill="none" xmlns="http://www.w3.org/2000/svg">
<circle cx="20.5" cy="20.5" r="20.5" fill="#B8BA21" fill-opacity="0.5"/>
<circle cx="20.5" cy="20.5" r="20" stroke="#B8BA21" stroke-opacity="0.6"/>
<path d="M15.9647 30V27.432H14.0447V25.104H15.9647V23.232H14.0447V20.256H15.9647V12.864H21.4367C23.6447 12.864 25.2527 13.312 26.2607 14.208C27.2847 15.104 27.7967 16.336 27.7967 17.904C27.7967 18.832 27.5887 19.704 27.1727 20.52C26.7567 21.336 26.0607 21.992 25.0847 22.488C24.1247 22.984 22.8127 23.232 21.1487 23.232H19.5887V25.104H23.2847V27.432H19.5887V30H15.9647ZM20.7887 20.256C21.8127 20.256 22.6207 20.08 23.2127 19.728C23.8207 19.376 24.1247 18.808 24.1247 18.024C24.1247 16.568 23.1647 15.84 21.2447 15.84H19.5887V20.256H20.7887Z" fill="white"/>
<path d="M15.9647 30H14.9647V31H15.9647V30ZM15.9647 27.432H16.9647V26.432H15.9647V27.432ZM14.0447 27.432H13.0447V28.432H14.0447V27.432ZM14.0447 25.104V24.104H13.0447V25.104H14.0447ZM15.9647 25.104V26.104H16.9647V25.104H15.9647ZM15.9647 23.232H16.9647V22.232H15.9647V23.232ZM14.0447 23.232H13.0447V24.232H14.0447V23.232ZM14.0447 20.256V19.256H13.0447V20.256H14.0447ZM15.9647 20.256V21.256H16.9647V20.256H15.9647ZM15.9647 12.864V11.864H14.9647V12.864H15.9647ZM26.2607 14.208L25.5963 14.9554L25.6022 14.9606L26.2607 14.208ZM27.1727 20.52L28.0636 20.9742V20.9742L27.1727 20.52ZM25.0847 22.488L24.6316 21.5965L24.6257 21.5996L25.0847 22.488ZM19.5887 23.232V22.232H18.5887V23.232H19.5887ZM19.5887 25.104H18.5887V26.104H19.5887V25.104ZM23.2847 25.104H24.2847V24.104H23.2847V25.104ZM23.2847 27.432V28.432H24.2847V27.432H23.2847ZM19.5887 27.432V26.432H18.5887V27.432H19.5887ZM19.5887 30V31H20.5887V30H19.5887ZM23.2127 19.728L22.7116 18.8625L22.7016 18.8685L23.2127 19.728ZM19.5887 15.84V14.84H18.5887V15.84H19.5887ZM19.5887 20.256H18.5887V21.256H19.5887V20.256ZM16.9647 30V27.432H14.9647V30H16.9647ZM15.9647 26.432H14.0447V28.432H15.9647V26.432ZM15.0447 27.432V25.104H13.0447V27.432H15.0447ZM14.0447 26.104H15.9647V24.104H14.0447V26.104ZM16.9647 25.104V23.232H14.9647V25.104H16.9647ZM15.9647 22.232H14.0447V24.232H15.9647V22.232ZM15.0447 23.232V20.256H13.0447V23.232H15.0447ZM14.0447 21.256H15.9647V19.256H14.0447V21.256ZM16.9647 20.256V12.864H14.9647V20.256H16.9647ZM15.9647 13.864H21.4367V11.864H15.9647V13.864ZM21.4367 13.864C23.546 13.864 24.8571 14.2984 25.5963 14.9554L26.9251 13.4606C25.6482 12.3256 23.7434 11.864 21.4367 11.864V13.864ZM25.6022 14.9606C26.375 15.6368 26.7967 16.5757 26.7967 17.904H28.7967C28.7967 16.0963 28.1943 14.5712 26.9192 13.4554L25.6022 14.9606ZM26.7967 17.904C26.7967 18.6763 26.6251 19.3924 26.2818 20.0658L28.0636 20.9742C28.5523 20.0156 28.7967 18.9877 28.7967 17.904H26.7967ZM26.2818 20.0658C25.9794 20.6589 25.4569 21.1771 24.6316 21.5965L25.5377 23.3795C26.6645 22.8069 27.5339 22.0131 28.0636 20.9742L26.2818 20.0658ZM24.6257 21.5996C23.8638 21.9932 22.7313 22.232 21.1487 22.232V24.232C22.8941 24.232 24.3856 23.9748 25.5437 23.3764L24.6257 21.5996ZM21.1487 22.232H19.5887V24.232H21.1487V22.232ZM18.5887 23.232V25.104H20.5887V23.232H18.5887ZM19.5887 26.104H23.2847V24.104H19.5887V26.104ZM22.2847 25.104V27.432H24.2847V25.104H22.2847ZM23.2847 26.432H19.5887V28.432H23.2847V26.432ZM18.5887 27.432V30H20.5887V27.432H18.5887ZM19.5887 29H15.9647V31H19.5887V29ZM20.7887 21.256C21.911 21.256 22.9195 21.0657 23.7238 20.5875L22.7016 18.8685C22.3218 19.0943 21.7143 19.256 20.7887 19.256V21.256ZM23.7137 20.5934C24.6714 20.039 25.1247 19.1149 25.1247 18.024H23.1247C23.1247 18.5011 22.9699 18.713 22.7117 18.8626L23.7137 20.5934ZM25.1247 18.024C25.1247 17.0561 24.7912 16.1824 24.0089 15.5892C23.2789 15.0356 22.3026 14.84 21.2447 14.84V16.84C22.1068 16.84 22.5705 17.0084 22.8004 17.1828C22.9782 17.3176 23.1247 17.5359 23.1247 18.024H25.1247ZM21.2447 14.84H19.5887V16.84H21.2447V14.84ZM18.5887 15.84V20.256H20.5887V15.84H18.5887ZM19.5887 21.256H20.7887V19.256H19.5887V21.256Z" fill="#B8BA21" fill-opacity="0.6"/>
<path opacity="0.6" d="M21 34.5C21 41.4036 26.5964 47 33.5 47C36.2063 47 38.7118 46.1399 40.758 44.6782L45.5633 51L48 49L43 42.6244C44.8703 40.4394 46 37.6016 46 34.5C46 27.5964 40.4036 22 33.5 22C26.5964 22 21 27.5964 21 34.5Z" fill="#70D92A"/>
<circle opacity="0.5" cx="33.5" cy="34.5" r="9.5" fill="white"/>
</svg>
